<?xml version="1.0" encoding="utf-8"?>
<!-- Generator: Adobe Illustrator 27.1.0, SVG Export Plug-In . SVG Version: 6.00 Build 0)  -->
<svg version="1.1" xmlns="http://www.w3.org/2000/svg" xmlns:xlink="http://www.w3.org/1999/xlink" x="0px" y="0px"
	 viewBox="0 0 185 185" style="enable-background:new 0 0 185 185;" xml:space="preserve">
<style type="text/css">
	.st0{fill:url(#SVGID_1_);}
	.st1{font-family:'EduNSWACTFoundation-Regular';}
	.st2{font-size:183.4309px;}
	.st3{font-family:'FuzzyBubbles-Bold';}
	.st4{font-size:72.9259px;}
</style>
<g id="Layer_1">
	<linearGradient id="SVGID_1_" gradientUnits="userSpaceOnUse" x1="27.9453" y1="142.3142" x2="174.4086" y2="29.2943">
		<stop  offset="5.327789e-09" style="stop-color:#57B4F6"/>
		<stop  offset="0.5185" style="stop-color:#5789F6"/>
		<stop  offset="1" style="stop-color:#575EF6"/>
	</linearGradient>
	<path class="st0" d="M0,92.5C0,41.4,41.4,0,92.5,0H135c27.6,0,50,22.4,50,50v42.5c0,51.1-41.4,92.5-92.5,92.5l0,0
		C41.4,185,0,143.6,0,92.5L0,92.5z"/>
</g>
<g id="Layer_2">
	<g>
		<text transform="matrix(1.2 0 0 1 45.3173 163.0027)" class="st1 st2">S</text>
	</g>
	<g>
		<text transform="matrix(-1.18 0 0 1 115.8148 140.9724)" class="st3 st4">M</text>
	</g>
	<path d="M70.8,142.7c5.6,0,5.6-8.8,0-8.8C65.2,134.1,65.2,142.7,70.8,142.7L70.8,142.7z"/>
	<path d="M92.1,143.2c5.6,0,5.6-8.8,0-8.8C86.4,134.4,86.4,143.2,92.1,143.2L92.1,143.2z"/>
</g>
</svg>
